<?xml version="1.0" encoding="UTF-8"?>
<svg xmlns="http://www.w3.org/2000/svg" width="150" height="150" viewBox="0 0 1080 720">
<path d="M0 0 C4.12979532 0.01317749 8.25958034 0.00855588 12.38939083 0.00629318 C19.51372951 0.00473389 26.63798461 0.01400047 33.76230228 0.03100669 C44.06235923 0.05557737 54.36237653 0.06322024 64.6624596 0.06697067 C81.38099419 0.07350712 98.0994844 0.09339134 114.81799495 0.1218785 C131.04097453 0.14949226 147.26394192 0.17065537 163.48694026 0.18340194 C165.0067644 0.18460793 165.0067644 0.18460793 166.55729204 0.18583828 C174.48344373 0.19207798 182.40959567 0.19794825 190.33574772 0.20370197 C229.06481553 0.23191026 267.79377205 0.29228687 306.52282894 0.34819686 C306.52282894 55.45819686 306.52282894 110.56819686 306.52282894 167.34819686 C317.08282894 167.34819686 327.64282894 167.34819686 338.52282894 167.34819686 C338.85282894 164.70819686 339.18282894 162.06819686 339.52282894 159.34819686 C340.21650797 156.21545285 341.14849584 153.16650088 342.08532894 150.09819686 C342.34853939 149.23412216 342.61174984 148.37004745 342.88293636 147.47978866 C353.21654609 114.4080478 370.69841654 86.34011492 394.52282894 61.34819686 C395.20989925 60.61987655 395.89696956 59.89155624 396.60486019 59.14116561 C401.85325664 53.72174199 407.58107205 48.98713506 413.52282894 44.34819686 C414.05730648 43.92667343 414.59178401 43.50514999 415.14245784 43.07085311 C458.50637489 9.11525615 514.39309538 -4.71743347 568.82922542 1.11748397 C623.25414609 8.14176508 674.07790012 36.4050666 707.85632503 79.82744491 C741.67689054 124.16270318 757.18478879 179.10292105 750.49426448 234.56816757 C748.93725319 246.10492412 748.93725319 246.10492412 747.52282894 250.34819686 C640.93282894 250.34819686 534.34282894 250.34819686 424.52282894 250.34819686 C436.4544278 277.19429431 451.01925931 298.22705094 475.52282894 314.34819686 C476.45353206 314.97468124 477.38423519 315.60116561 478.34314144 316.24663436 C491.50386977 324.53301887 507.19368005 329.93933061 522.52282894 332.34819686 C523.54247737 332.52866561 524.56212581 332.70913436 525.61267269 332.89507186 C542.70646525 334.8759709 559.94236434 333.89288727 576.52282894 329.34819686 C577.19700862 329.16627792 577.87118831 328.98435897 578.56579769 328.79692733 C585.1003655 326.97253078 590.7503865 324.87552242 596.49804866 321.30039871 C608.29516974 314.33703989 620.72781221 315.33460517 634.02282894 315.56694686 C636.55585099 315.58189709 639.08889642 315.59327093 641.62195003 315.60124862 C647.56475931 315.62847875 653.50649054 315.69126303 659.44874942 315.77204454 C666.2251195 315.86212368 673.00155374 315.90561327 679.77837551 315.94560802 C693.69385625 316.02875514 707.60827594 316.16905082 721.52282894 316.34819686 C719.88076157 320.6892945 717.68482517 324.23907383 714.96032894 327.97319686 C714.51487728 328.58856308 714.06942562 329.20392929 713.61047542 329.83794296 C679.7239483 376.24187316 631.16978729 406.25457633 574.44470394 415.80522811 C564.2061302 417.2227199 554.09726375 417.59009679 543.77282894 417.59819686 C542.99759883 417.59887161 542.22236873 417.59954635 541.42364681 417.60024154 C528.58430019 417.58255194 516.14381344 416.87288639 503.52282894 414.34819686 C502.65593441 414.17659042 501.78903987 414.00498397 500.89587581 413.82817733 C460.38477683 405.53777504 425.15240361 386.00364853 395.52282894 357.34819686 C394.72618831 356.60311874 393.92954769 355.85804061 393.10876644 355.09038436 C387.04299749 349.28182116 381.92400815 342.83412015 376.87829769 336.14360702 C376.00945865 334.99277087 375.13494424 333.84618456 374.25329769 332.70513046 C356.34130096 309.48350613 342.1810634 279.61407261 338.52282894 250.34819686 C327.96282894 250.34819686 317.40282894 250.34819686 306.52282894 250.34819686 C306.52282894 305.45819686 306.52282894 360.56819686 306.52282894 417.34819686 C278.80282894 417.34819686 251.08282894 417.34819686 222.52282894 417.34819686 C222.52282894 362.23819686 222.52282894 307.12819686 222.52282894 250.34819686 C203.38282894 250.34819686 184.24282894 250.34819686 164.52282894 250.34819686 C164.44032894 245.02694686 164.35782894 239.70569686 164.27282894 234.22319686 C164.23641292 232.57561386 164.19999691 230.92803085 164.16247737 229.23052108 C163.94935473 212.61038403 168.15004753 198.05718332 179.68835628 185.59673202 C189.14799061 175.89430951 200.06388204 169.75318072 213.52282894 167.34819686 C216.49282894 167.34819686 219.46282894 167.34819686 222.52282894 167.34819686 C222.52282894 139.62819686 222.52282894 111.90819686 222.52282894 83.34819686 C177.31282894 83.34819686 132.10282894 83.34819686 85.52282894 83.34819686 C85.52282894 193.23819686 85.52282894 303.12819686 85.52282894 416.34819686 C58.13282894 416.34819686 30.74282894 416.34819686 2.52282894 416.34819686 C2.52282894 306.45819686 2.52282894 196.56819686 2.52282894 83.34819686 C-35.49362497 84.65910907 -67.04265137 88.5490346 -96.47717106 113.34819686 C-97.39756169 114.09327499 -98.31795231 114.83835311 -99.26623356 115.60600936 C-123.04004659 135.81717606 -136.56581797 166.05816861 -139.26548398 196.78155601 C-139.75233307 204.98430413 -139.65896995 213.21056197 -139.68249333 221.42510116 C-139.69208491 223.55477731 -139.70209572 225.68445161 -139.71249211 227.81412399 C-139.73940857 233.56947547 -139.7604895 239.32483504 -139.78049409 245.08021414 C-139.80243591 251.10468123 -139.82978432 257.12912377 -139.85655034 263.15357101 C-139.9063668 274.55004949 -139.9513464 285.94654167 -139.9945727 297.34304684 C-140.04403976 310.32251501 -140.09892264 323.30195853 -140.15425229 336.28140283 C-140.26790267 362.97031226 -140.37406347 389.65924447 -140.47717106 416.34819686 C-167.86717106 416.34819686 -195.25717106 416.34819686 -223.47717106 416.34819686 C-223.54348042 387.40501446 -223.59880589 358.46188606 -223.63036705 329.51864662 C-223.63411855 326.09081753 -223.63800157 322.6629886 -223.64196599 319.23515975 C-223.64275292 318.55282688 -223.64353985 317.870494 -223.64435063 317.16748437 C-223.65735506 306.16268488 -223.68098108 295.15793307 -223.70862945 284.15316174 C-223.73682261 272.83598691 -223.75315238 261.51884713 -223.75943655 250.20163494 C-223.76332764 243.85557262 -223.77239188 237.50961794 -223.79436123 231.16359031 C-223.81492505 225.17428404 -223.82096519 219.1851284 -223.81649411 213.19579017 C-223.8173105 211.01313728 -223.82315633 208.83047865 -223.83478749 206.64785659 C-224.08005374 158.19159477 -208.39610768 111.31386473 -176.47717106 74.34819686 C-175.81846013 73.57991561 -175.15974919 72.81163436 -174.48107731 72.02007186 C-163.83854182 59.91296726 -152.5270933 48.82778862 -139.47717106 39.34819686 C-138.92577458 38.94181991 -138.37437809 38.53544296 -137.80627263 38.11675155 C-117.09377539 23.01667292 -93.53634766 12.61446365 -68.85217106 6.09819686 C-67.99035222 5.86366806 -67.12853337 5.62913925 -66.2405988 5.3875035 C-44.54326252 0.00328524 -22.20495192 -0.08922694 0 0 Z M509.52282894 87.34819686 C508.8631512 87.51948104 508.20347347 87.69076522 507.5238055 87.86723983 C486.63953908 93.4560628 469.08026107 105.71712671 453.52282894 120.34819686 C452.92083675 120.88573593 452.31884456 121.42327499 451.69861019 121.97710311 C439.54499956 133.2808109 429.99521426 149.86412041 424.52282894 165.34819686 C424.52282894 166.00819686 424.52282894 166.66819686 424.52282894 167.34819686 C502.73282894 167.34819686 580.94282894 167.34819686 661.52282894 167.34819686 C657.52643625 156.64250853 657.52643625 156.64250853 652.52282894 146.53569686 C652.15037044 145.87827499 651.77791194 145.22085311 651.39416683 144.54350936 C634.95032036 116.59460524 607.17396011 95.42263602 575.81091487 87.2065953 C553.85658173 81.6757457 531.44760915 81.43550872 509.52282894 87.34819686 Z " fill="#000000" transform="translate(276.47717106342316,67.65180313587189)"/>
<path d="M0 0 C2.13786534 0.00850094 4.27304254 -0.02029919 6.41064453 -0.05200195 C15.43611557 -0.0999543 23.51783787 0.53147651 30.74658203 6.48120117 C31.27123047 7.15022461 31.79587891 7.81924805 32.33642578 8.50854492 C32.88427734 9.18014648 33.43212891 9.85174805 33.99658203 10.54370117 C36.17110655 13.78221322 36.41105933 16.5480785 36.46679688 20.34130859 C36.4828598 21.33631882 36.49892273 22.33132904 36.51547241 23.35649109 C36.56006856 27.9118066 36.60099866 32.46697793 36.62402344 37.02246094 C36.64056395 39.42099727 36.66782844 41.8194847 36.70605469 44.21777344 C36.76098575 47.68344593 36.78272464 51.14796369 36.79736328 54.61401367 C36.82003265 55.67887497 36.84270203 56.74373627 36.86605835 57.84086609 C36.84289628 66.05533777 34.72080532 70.90341873 29.02392578 76.75854492 C20.9405007 81.71882849 12.74883939 81.89206356 3.47241211 81.78222656 C1.34401408 81.75862905 -0.78312507 81.76168431 -2.91162109 81.76831055 C-23.06988823 81.72804368 -23.06988823 81.72804368 -30.72607422 75.44604492 C-32.44073458 72.01672421 -31.78011478 68.22888427 -31.72607422 64.44604492 C-26.77607422 64.44604492 -21.82607422 64.44604492 -16.72607422 64.44604492 C-16.72607422 65.43604492 -16.72607422 66.42604492 -16.72607422 67.44604492 C-11.93871496 67.32777749 -7.15156251 67.2035278 -2.36450195 67.07373047 C-0.73596418 67.03041743 0.89261795 66.98873974 2.52124023 66.94873047 C4.86211513 66.8909399 7.20276754 66.82727094 9.54345703 66.76245117 C10.63579399 66.73738243 10.63579399 66.73738243 11.75019836 66.71180725 C14.83559517 66.62137254 17.32564557 66.42880499 20.27392578 65.44604492 C20.60392578 63.46604492 20.93392578 61.48604492 21.27392578 59.44604492 C19.85297607 59.42417114 19.85297607 59.42417114 18.40332031 59.40185547 C14.8432014 59.34030912 11.2837937 59.26607029 7.72412109 59.18359375 C6.19199369 59.15061537 4.65975269 59.12250182 3.12744141 59.09960938 C-18.67314285 58.76520093 -18.67314285 58.76520093 -27.25341797 51.23901367 C-30.91687097 46.77873535 -32.10703153 42.64625229 -32.12451172 36.94604492 C-32.1303125 35.12073242 -32.1303125 35.12073242 -32.13623047 33.25854492 C-32.12462891 32.00041992 -32.11302734 30.74229492 -32.10107422 29.44604492 C-32.11267578 28.18791992 -32.12427734 26.92979492 -32.13623047 25.63354492 C-32.13236328 24.41666992 -32.12849609 23.19979492 -32.12451172 21.94604492 C-32.12112793 20.84260742 -32.11774414 19.73916992 -32.11425781 18.60229492 C-31.49234991 13.54567521 -29.42339022 9.55279507 -25.53857422 6.25854492 C-25.00876953 5.79061523 -24.47896484 5.32268555 -23.93310547 4.84057617 C-16.28647885 0.00899086 -8.80455532 -0.05333045 0 0 Z M-15.11645508 16.1628418 C-17.99198181 20.24170211 -17.34165259 24.61279085 -17.28857422 29.44604492 C-17.31242188 30.4437793 -17.33626953 31.44151367 -17.36083984 32.46948242 C-17.35890625 33.43112305 -17.35697266 34.39276367 -17.35498047 35.38354492 C-17.35570557 36.25881836 -17.35643066 37.1340918 -17.35717773 38.03588867 C-16.87342915 40.63366295 -16.87342915 40.63366295 -14.66845703 42.73803711 C-11.03378351 44.84790899 -8.09899522 44.95768683 -4.01904297 44.83666992 C-3.29364822 44.83101013 -2.56825348 44.82535034 -1.82087708 44.81951904 C0.48224586 44.79723591 2.78377802 44.7470598 5.08642578 44.69604492 C6.65346051 44.67596926 8.22051977 44.65772035 9.78759766 44.64135742 C13.61698097 44.59739829 17.44518424 44.52843115 21.27392578 44.44604492 C21.39003973 40.19627446 21.46114927 35.94691155 21.52392578 31.69604492 C21.55744141 30.48948242 21.59095703 29.28291992 21.62548828 28.03979492 C21.63837891 26.87963867 21.65126953 25.71948242 21.66455078 24.52416992 C21.68549805 23.45585938 21.70644531 22.38754883 21.72802734 21.28686523 C21.46917733 18.37500254 21.46917733 18.37500254 19.67529297 16.09936523 C16.47073574 13.8930556 14.33547669 13.92923494 10.46142578 13.91479492 C9.48532349 13.90905457 9.48532349 13.90905457 8.48950195 13.90319824 C7.11782274 13.90048416 5.74609134 13.9078104 4.37451172 13.92456055 C2.27990893 13.94598373 0.18873494 13.92474856 -1.90576172 13.89916992 C-3.24170676 13.9018133 -4.57764967 13.90693849 -5.91357422 13.91479492 C-7.12400391 13.91930664 -8.33443359 13.92381836 -9.58154297 13.9284668 C-12.7786593 14.21586857 -12.7786593 14.21586857 -15.11645508 16.1628418 Z " fill="#00F1FF" transform="translate(910.72607421875,570.553955078125)"/>
<path d="M0 0 C4.95 0 9.9 0 15 0 C15.0093457 1.1960083 15.01869141 2.3920166 15.02832031 3.62426758 C15.06816814 8.05824138 15.13391191 12.49151748 15.20751953 16.92504883 C15.23575948 18.84455407 15.25695895 20.76417625 15.27099609 22.68383789 C15.29238411 25.44217938 15.33901133 28.19911038 15.390625 30.95703125 C15.39185364 31.81649857 15.39308228 32.67596588 15.39434814 33.56147766 C15.44966379 38.12793491 15.44966379 38.12793491 17.54882812 42.03320312 C20.95982187 43.37857516 24.21181777 43.48007912 27.828125 43.51171875 C28.49247559 43.52835571 29.15682617 43.54499268 29.84130859 43.56213379 C32.31055411 43.61973825 34.78033582 43.65213734 37.25 43.6875 C45.54125 43.8421875 45.54125 43.8421875 54 44 C54 29.48 54 14.96 54 0 C58.95 0 63.9 0 69 0 C69.06792394 8.22367354 69.12290106 16.44712697 69.15543652 24.6710062 C69.17105618 28.49016857 69.19222614 32.30912815 69.22631836 36.12817383 C69.2590448 39.81753963 69.27688081 43.50671104 69.28463173 47.19621086 C69.29015153 48.59995519 69.30093021 50.00368953 69.31719017 51.40735054 C69.49122224 67.06118516 69.49122224 67.06118516 63.5625 73.75 C62.716875 74.4925 61.87125 75.235 61 76 C60.401875 76.556875 59.80375 77.11375 59.1875 77.6875 C52.10435515 81.93738691 43.67734937 81.30979153 35.70117188 81.26074219 C33.63641748 81.25005907 31.57253983 81.26066194 29.5078125 81.2734375 C9.63151239 81.29599772 9.63151239 81.29599772 2 75 C-0.67927341 70.98108988 -0.15601248 68.75838077 0 64 C4.95 64 9.9 64 15 64 C15.33 64.66 15.66 65.32 16 66 C20.62640153 66.09901748 25.25218387 66.17153649 29.87939453 66.21972656 C31.45274604 66.2398188 33.02602308 66.26709799 34.59912109 66.30175781 C36.86314272 66.35038494 39.12617573 66.37299135 41.390625 66.390625 C42.09181458 66.41127014 42.79300415 66.43191528 43.51544189 66.45318604 C46.86010877 66.45471621 48.68733456 66.22991222 51.41308594 64.22558594 C52.95455324 62.06373733 53.62775805 60.60569365 54 58 C53.01717041 58.01571045 52.03434082 58.0314209 51.02172852 58.04760742 C47.33724324 58.10235583 43.65279311 58.13651141 39.96801758 58.16479492 C38.38039074 58.17978013 36.79280457 58.20017546 35.20532227 58.22631836 C14.17108663 58.56376599 14.17108663 58.56376599 6.625 51.75 C5.68527344 50.93789063 5.68527344 50.93789063 4.7265625 50.109375 C-0.05461238 44.26812062 -0.42333202 38.5941161 -0.29296875 31.34765625 C-0.28872391 30.44752304 -0.28447906 29.54738983 -0.28010559 28.61997986 C-0.26341816 25.76717214 -0.22578497 22.91509137 -0.1875 20.0625 C-0.1724403 18.11915088 -0.15875415 16.17579061 -0.14648438 14.23242188 C-0.11354726 9.48800451 -0.0618344 4.74412517 0 0 Z " fill="#00F1FF" transform="translate(446,571)"/>
<path d="M0 0 C4.95 0 9.9 0 15 0 C15.0093457 1.1960083 15.01869141 2.3920166 15.02832031 3.62426758 C15.06816814 8.05824138 15.13391191 12.49151748 15.20751953 16.92504883 C15.23575948 18.84455407 15.25695895 20.76417625 15.27099609 22.68383789 C15.29238411 25.44217938 15.33901133 28.19911038 15.390625 30.95703125 C15.39185364 31.81649857 15.39308228 32.67596588 15.39434814 33.56147766 C15.44966379 38.12793491 15.44966379 38.12793491 17.54882812 42.03320312 C20.95982187 43.37857516 24.21181777 43.48007912 27.828125 43.51171875 C28.49247559 43.52835571 29.15682617 43.54499268 29.84130859 43.56213379 C32.31055411 43.61973825 34.78033582 43.65213734 37.25 43.6875 C45.54125 43.8421875 45.54125 43.8421875 54 44 C54 29.48 54 14.96 54 0 C58.95 0 63.9 0 69 0 C69.11343035 8.17187125 69.20496018 16.34311985 69.25906086 24.51556969 C69.28504016 28.31129829 69.32022007 32.10645558 69.37719727 35.90185547 C69.43194008 39.5718196 69.46150804 43.24123789 69.47438622 46.91157913 C69.48355116 48.30452684 69.50144661 49.69744817 69.52865028 51.09016037 C69.69129852 59.77050017 69.17466494 66.77819689 64 74 C56.04015393 81.83399953 45.73215402 81.32304239 35.21899414 81.26074219 C33.07083798 81.25004153 30.92352106 81.26067001 28.77539062 81.2734375 C9.82002449 81.29416605 9.82002449 81.29416605 2 75 C-0.67927341 70.98108988 -0.15601248 68.75838077 0 64 C4.95 64 9.9 64 15 64 C15.33 64.66 15.66 65.32 16 66 C20.62640153 66.09901748 25.25218387 66.17153649 29.87939453 66.21972656 C31.45274604 66.2398188 33.02602308 66.26709799 34.59912109 66.30175781 C36.86314272 66.35038494 39.12617573 66.37299135 41.390625 66.390625 C42.09181458 66.41127014 42.79300415 66.43191528 43.51544189 66.45318604 C46.86010877 66.45471621 48.68733456 66.22991222 51.41308594 64.22558594 C52.95455324 62.06373733 53.62775805 60.60569365 54 58 C53.01717041 58.01571045 52.03434082 58.0314209 51.02172852 58.04760742 C47.33724324 58.10235583 43.65279311 58.13651141 39.96801758 58.16479492 C38.38039074 58.17978013 36.79280457 58.20017546 35.20532227 58.22631836 C14.17108663 58.56376599 14.17108663 58.56376599 6.625 51.75 C5.68527344 50.93789063 5.68527344 50.93789063 4.7265625 50.109375 C-0.05461238 44.26812062 -0.42333202 38.5941161 -0.29296875 31.34765625 C-0.28872391 30.44752304 -0.28447906 29.54738983 -0.28010559 28.61997986 C-0.26341816 25.76717214 -0.22578497 22.91509137 -0.1875 20.0625 C-0.1724403 18.11915088 -0.15875415 16.17579061 -0.14648438 14.23242188 C-0.11354726 9.48800451 -0.0618344 4.74412517 0 0 Z " fill="#00F1FF" transform="translate(958,571)"/>
<path d="M0 0 C2.12688865 0.00848719 4.25106253 -0.02027599 6.37768555 -0.05200195 C15.09443109 -0.0980308 24.55561783 0.10835984 31.3515625 6.28417969 C39.93172723 15.85270409 36.32885742 19.37048612 36.32885742 36.44604492 C18.50885742 36.44604492 0.68885742 36.44604492 -17.67114258 36.44604492 C-16.24597983 41.21540695 -16.24597983 41.21540695 -14.02172852 42.74633789 C-10.70296587 43.73424542 -7.49000721 43.69182629 -4.06176758 43.64135742 C-3.33495789 43.63852753 -2.60814819 43.63569763 -1.85931396 43.63278198 C0.45357993 43.62162015 2.7660813 43.59652344 5.07885742 43.57104492 C6.6504664 43.56100993 8.22208147 43.55188499 9.79370117 43.54370117 C13.63890364 43.52169397 17.48381406 43.48719208 21.32885742 43.44604492 C21.32885742 41.46604492 21.32885742 39.48604492 21.32885742 37.44604492 C26.27885742 37.44604492 31.22885742 37.44604492 36.32885742 37.44604492 C36.99850028 48.42818778 36.99850028 48.42818778 34.32885742 51.94604492 C25.45045514 59.34471349 14.07101505 58.65203228 3.07885742 58.69604492 C1.80655273 58.71666992 0.53424805 58.73729492 -0.77661133 58.75854492 C-9.69311467 58.79535195 -19.09466346 58.56574891 -26.10864258 52.32104492 C-26.72610352 51.8028418 -27.34356445 51.28463867 -27.97973633 50.75073242 C-32.641008 44.39934608 -33.15193617 37.0866929 -33.04614258 29.44604492 C-33.05774414 28.6081543 -33.0693457 27.77026367 -33.08129883 26.90698242 C-33.04980523 20.12536201 -32.1181447 13.64722286 -27.90942383 8.14135742 C-27.27391602 7.6231543 -26.6384082 7.10495117 -25.98364258 6.57104492 C-25.36102539 6.03737305 -24.7384082 5.50370117 -24.09692383 4.95385742 C-16.31383188 0.11605792 -8.94561385 -0.05434012 0 0 Z M-17.67114258 19.44604492 C-17.67114258 20.43604492 -17.67114258 21.42604492 -17.67114258 22.44604492 C-4.80114258 22.44604492 8.06885742 22.44604492 21.32885742 22.44604492 C21.88079941 17.67370396 21.88079941 17.67370396 19.75244141 15.6628418 C15.02540415 13.28956148 9.67281457 13.92795891 4.484375 13.94506836 C2.40053038 13.94604064 0.32037361 13.90440705 -1.76293945 13.86010742 C-3.08229492 13.8575293 -4.40165039 13.85495117 -5.76098633 13.85229492 C-6.9661792 13.84520508 -8.17137207 13.83811523 -9.41308594 13.83081055 C-13.58473366 14.61856268 -15.09092273 16.13936724 -17.67114258 19.44604492 Z " fill="#00F1FF" transform="translate(616.671142578125,570.553955078125)"/>
<path d="M0 0 C2.12688865 0.00848719 4.25106253 -0.02027599 6.37768555 -0.05200195 C15.09443109 -0.0980308 24.55561783 0.10835984 31.3515625 6.28417969 C39.93172723 15.85270409 36.32885742 19.37048612 36.32885742 36.44604492 C18.50885742 36.44604492 0.68885742 36.44604492 -17.67114258 36.44604492 C-16.24597983 41.21540695 -16.24597983 41.21540695 -14.02172852 42.74633789 C-10.70296587 43.73424542 -7.49000721 43.69182629 -4.06176758 43.64135742 C-3.33495789 43.63852753 -2.60814819 43.63569763 -1.85931396 43.63278198 C0.45357993 43.62162015 2.7660813 43.59652344 5.07885742 43.57104492 C6.6504664 43.56100993 8.22208147 43.55188499 9.79370117 43.54370117 C13.63890364 43.52169397 17.48381406 43.48719208 21.32885742 43.44604492 C21.32885742 41.46604492 21.32885742 39.48604492 21.32885742 37.44604492 C26.27885742 37.44604492 31.22885742 37.44604492 36.32885742 37.44604492 C36.99850028 48.42818778 36.99850028 48.42818778 34.26635742 51.94604492 C25.32761917 59.55348173 14.11222851 58.65132605 3.01635742 58.69604492 C1.74856445 58.71666992 0.48077148 58.73729492 -0.82543945 58.75854492 C-10.87744886 58.8001897 -19.43004973 58.05309688 -27.19848633 51.23901367 C-32.67934295 44.5660344 -32.15503391 37.71137645 -32.10864258 29.50854492 C-32.12862305 28.25879883 -32.14860352 27.00905273 -32.16918945 25.72143555 C-32.16447457 16.84331697 -31.31115475 12.08605709 -24.92114258 5.69604492 C-16.9385673 0.16964665 -9.43918898 -0.05733834 0 0 Z M-17.67114258 19.44604492 C-17.67114258 20.43604492 -17.67114258 21.42604492 -17.67114258 22.44604492 C-4.80114258 22.44604492 8.06885742 22.44604492 21.32885742 22.44604492 C21.32885742 20.46604492 21.32885742 18.48604492 21.32885742 16.44604492 C16.21635477 13.27814603 10.30573472 14.03627642 4.484375 14.02050781 C2.40074455 14.00859858 0.32006756 13.95938049 -1.76293945 13.90893555 C-3.74197266 13.89830078 -3.74197266 13.89830078 -5.76098633 13.88745117 C-7.56877563 13.86726929 -7.56877563 13.86726929 -9.41308594 13.84667969 C-13.59327751 14.61568458 -15.08990264 16.13531751 -17.67114258 19.44604492 Z " fill="#00F1FF" transform="translate(775.671142578125,570.553955078125)"/>
<path d="M0 0 C1.13312622 0.00201416 2.26625244 0.00402832 3.43371582 0.00610352 C7.64465413 0.01652489 11.85553448 0.04444733 16.06640625 0.0703125 C25.49203125 0.1115625 34.91765625 0.1528125 44.62890625 0.1953125 C44.62890625 19.3353125 44.62890625 38.4753125 44.62890625 58.1953125 C40.00890625 58.1953125 35.38890625 58.1953125 30.62890625 58.1953125 C30.62890625 43.6753125 30.62890625 29.1553125 30.62890625 14.1953125 C25.01890625 14.1953125 19.40890625 14.1953125 13.62890625 14.1953125 C13.62890625 28.7153125 13.62890625 43.2353125 13.62890625 58.1953125 C8.67890625 58.1953125 3.72890625 58.1953125 -1.37109375 58.1953125 C-1.37109375 43.6753125 -1.37109375 29.1553125 -1.37109375 14.1953125 C-11.72828995 14.16622285 -11.72828995 14.16622285 -16.37109375 18.1953125 C-16.78463992 21.15794891 -16.95230567 23.76435128 -16.9453125 26.73046875 C-16.95947708 27.56493027 -16.97364166 28.39939178 -16.98823547 29.25914001 C-17.03018346 31.92549506 -17.04538425 34.59117371 -17.05859375 37.2578125 C-17.0876326 39.92770686 -17.12216076 42.59742875 -17.16108704 45.26719666 C-17.18360134 46.92870807 -17.19940436 48.59032632 -17.20793152 50.25196838 C-17.26155269 55.97623039 -17.26155269 55.97623039 -18.37109375 58.1953125 C-22.99109375 58.1953125 -27.61109375 58.1953125 -32.37109375 58.1953125 C-32.4704309 52.36040132 -32.54278311 46.52598913 -32.59082031 40.69042969 C-32.61085872 38.70792051 -32.63809728 36.72546987 -32.67285156 34.74316406 C-32.72171329 31.88331609 -32.74414048 29.02425369 -32.76171875 26.1640625 C-32.78236389 25.28665405 -32.80300903 24.40924561 -32.82427979 23.50524902 C-32.82674263 16.65558161 -31.22728001 11.24583721 -26.4765625 6.171875 C-25.84363281 5.72585938 -25.21070313 5.27984375 -24.55859375 4.8203125 C-23.93339844 4.35882812 -23.30820312 3.89734375 -22.6640625 3.421875 C-15.38434497 -0.47221581 -8.0687832 -0.06786552 0 0 Z " fill="#00F1FF" transform="translate(85.37109375,570.8046875)"/>
<path d="M0 0 C4.95 0 9.9 0 15 0 C15 3.63 15 7.26 15 11 C16.04865234 10.98428955 17.09730469 10.9685791 18.17773438 10.95239258 C22.09887903 10.89775545 26.01999057 10.86352809 29.94140625 10.83520508 C31.63287022 10.82019495 33.32429578 10.79978037 35.015625 10.77368164 C37.45843024 10.73695314 39.9007173 10.72019589 42.34375 10.70703125 C43.46299866 10.68380547 43.46299866 10.68380547 44.6048584 10.66011047 C52.88462779 10.65750524 59.09332436 13.23068891 65 19 C69.62113189 25.5333244 69.24251297 31.93760304 69.3125 39.6875 C69.35600586 41.2643457 69.35600586 41.2643457 69.40039062 42.87304688 C69.46356315 50.68214255 68.41327693 57.10628283 63.140625 63.12109375 C62.51671875 63.55550781 61.8928125 63.98992188 61.25 64.4375 C60.63640625 64.88996094 60.0228125 65.34242188 59.390625 65.80859375 C51.51338345 69.73434321 43.23302034 69.33432561 34.625 69.3125 C33.36171875 69.32861328 32.0984375 69.34472656 30.796875 69.36132812 C22.31186384 69.36573821 13.70187444 69.03611522 6.625 63.8125 C-0.00521464 56.7086986 -0.56558874 50.10001182 -0.390625 40.625 C-0.38496521 39.4599292 -0.37930542 38.2948584 -0.37347412 37.09448242 C-0.35119421 33.39589275 -0.30101095 29.69829383 -0.25 26 C-0.22992428 23.48308697 -0.21167539 20.96615866 -0.1953125 18.44921875 C-0.15135649 12.29910102 -0.08238493 6.14971814 0 0 Z M15 25 C14.88385071 29.0830942 14.81276543 33.16576377 14.75 37.25 C14.71648437 38.40886719 14.68296875 39.56773437 14.6484375 40.76171875 C14.63554687 41.87675781 14.62265625 42.99179687 14.609375 44.140625 C14.58842773 45.16704102 14.56748047 46.19345703 14.54589844 47.25097656 C15.1172714 50.70993333 16.31237459 51.82965814 19 54 C23.4294615 56.21473075 29.4485461 55.22991139 34.3125 55.25 C36.1677832 55.2809375 36.1677832 55.2809375 38.06054688 55.3125 C39.25357422 55.31765625 40.44660156 55.3228125 41.67578125 55.328125 C42.76802002 55.3374707 43.86025879 55.34681641 44.9855957 55.35644531 C48.39220062 54.95362332 50.25957448 54.02884719 53 52 C54.80976521 48.38046959 54.27036663 44.17331702 54.3125 40.1875 C54.34150391 39.28451172 54.37050781 38.38152344 54.40039062 37.45117188 C54.41295898 36.13536133 54.41295898 36.13536133 54.42578125 34.79296875 C54.44036377 33.9939917 54.45494629 33.19501465 54.4699707 32.37182617 C53.78254932 28.90258007 52.6264019 27.36616983 50 25 C47.11154859 24.55288618 44.82722933 24.41215281 41.953125 24.51171875 C40.79632233 24.52233086 40.79632233 24.52233086 39.6161499 24.53315735 C37.15976788 24.56108422 34.70568949 24.62381261 32.25 24.6875 C30.58206424 24.71258539 28.91409264 24.73539815 27.24609375 24.75585938 C23.16317873 24.81090438 19.08197951 24.89715943 15 25 Z " fill="#00F1FF" transform="translate(219,560)"/>
<path d="M0 0 C2.08484428 0.00315591 4.16826055 -0.02033343 6.25292969 -0.0456543 C14.85894721 -0.08638478 22.12469678 0.4553289 29.53417969 5.06567383 C36.48944328 12.21965924 36.9217951 19.58760287 36.97167969 29.06567383 C36.99230469 30.02989258 37.01292969 30.99411133 37.03417969 31.98754883 C37.07417808 39.34725275 35.93645734 44.70640655 32.03417969 51.06567383 C23.75346331 59.12258706 13.32336403 58.52265427 2.47167969 58.56567383 C0.54388672 58.59661133 0.54388672 58.59661133 -1.42285156 58.62817383 C-10.88804197 58.66700538 -19.15261026 57.7931168 -26.78735352 51.79541016 C-32.18602659 46.43740172 -32.79127248 40.07135773 -32.82519531 32.76098633 C-32.80972656 31.6240332 -32.79425781 30.48708008 -32.77832031 29.31567383 C-32.79378906 28.1787207 -32.80925781 27.04176758 -32.82519531 25.87036133 C-32.78874262 18.01480702 -31.85792677 12.13884113 -26.38378906 6.29223633 C-25.75085938 5.8462207 -25.11792969 5.40020508 -24.46582031 4.94067383 C-23.840625 4.47918945 -23.21542969 4.01770508 -22.57128906 3.54223633 C-15.42388025 -0.28107946 -7.8625031 -0.02488134 0 0 Z M-17.27832031 19.31567383 C-18.02801326 21.61726899 -18.02801326 21.61726899 -17.94238281 24.00317383 C-17.94882813 24.8668457 -17.95527344 25.73051758 -17.96191406 26.62036133 C-17.94257813 27.50981445 -17.92324219 28.39926758 -17.90332031 29.31567383 C-17.92265625 30.20512695 -17.94199219 31.09458008 -17.96191406 32.01098633 C-17.93127276 36.11692087 -17.57808798 38.7583593 -15.61425781 42.40942383 C-10.115009 45.55185172 -4.48700135 44.95420424 1.72167969 44.81567383 C3.62820312 44.81954102 3.62820312 44.81954102 5.57324219 44.82348633 C13.65483127 44.86109901 13.65483127 44.86109901 20.72167969 41.31567383 C22.6007827 37.5574678 22.03601217 33.07709568 22.09667969 28.94067383 C22.1340625 27.98161133 22.17144531 27.02254883 22.20996094 26.03442383 C22.2215625 25.10887695 22.23316406 24.18333008 22.24511719 23.22973633 C22.26493652 22.38362793 22.28475586 21.53751953 22.30517578 20.66577148 C21.87209494 18.10868734 21.87209494 18.10868734 19.60498047 16.04394531 C14.26563466 12.84350256 8.28849574 13.70276529 2.22167969 13.75317383 C0.90296875 13.72932617 -0.41574219 13.70547852 -1.77441406 13.6809082 C-3.67900391 13.68380859 -3.67900391 13.68380859 -5.62207031 13.68676758 C-7.3574707 13.68567993 -7.3574707 13.68567993 -9.12792969 13.68457031 C-13.25201477 14.51072964 -14.73419373 16.01964767 -17.27832031 19.31567383 Z " fill="#00F1FF" transform="translate(173.2783203125,570.684326171875)"/>
<path d="M0 0 C4.95 0 9.9 0 15 0 C15 4.29 15 8.58 15 13 C30.18 13 45.36 13 61 13 C61 17.29 61 21.58 61 26 C45.82 26 30.64 26 15 26 C15.144375 30.08375 15.28875 34.1675 15.4375 38.375 C15.48060303 39.66196777 15.52370605 40.94893555 15.56811523 42.27490234 C15.60622314 43.28504395 15.64433105 44.29518555 15.68359375 45.3359375 C15.72025146 46.37282715 15.75690918 47.4097168 15.79467773 48.47802734 C15.84164223 50.99425166 15.84164223 50.99425166 17 53 C38.78 53.495 38.78 53.495 61 54 C61 58.62 61 63.24 61 68 C54.57709258 68.07437011 48.15443799 68.12870662 41.73120117 68.16479492 C39.5478885 68.17984555 37.36460589 68.20029074 35.18139648 68.22631836 C32.03621994 68.26286518 28.89144451 68.27976398 25.74609375 68.29296875 C24.7760289 68.30845261 23.80596405 68.32393646 22.8065033 68.33988953 C16.31269718 68.34148819 11.22499914 67.7016727 6.07421875 63.38671875 C5.61660156 62.82597656 5.15898437 62.26523437 4.6875 61.6875 C4.21699219 61.13449219 3.74648438 60.58148437 3.26171875 60.01171875 C-0.68531892 53.71845435 -0.26217771 47.20629562 -0.1953125 40.0390625 C-0.1924826 38.89335785 -0.18965271 37.7476532 -0.18673706 36.56723022 C-0.17557135 32.91971245 -0.15047299 29.27244315 -0.125 25.625 C-0.11496555 23.14713897 -0.10584051 20.66927408 -0.09765625 18.19140625 C-0.07564376 12.12750891 -0.04113838 6.06379654 0 0 Z " fill="#00F1FF" transform="translate(376,561)"/>
<path d="M0 0 C12.0965625 -0.0928125 12.0965625 -0.0928125 24.4375 -0.1875 C26.96591553 -0.21481201 29.49433105 -0.24212402 32.09936523 -0.27026367 C34.12743656 -0.27903431 36.15551322 -0.28667688 38.18359375 -0.29296875 C39.21713989 -0.30831665 40.25068604 -0.32366455 41.31555176 -0.33947754 C48.9442946 -0.34220501 55.76674165 0.34154313 61.8125 5.3125 C68.11969474 13.06133925 69.15797791 18.35093987 69.09765625 28.01953125 C69.0962413 28.87810226 69.09482635 29.73667328 69.09336853 30.6212616 C69.08779057 33.35171049 69.07524214 36.08207607 69.0625 38.8125 C69.05748215 40.6686186 69.05291974 42.5247385 69.04882812 44.38085938 C69.03782836 48.9206048 69.02057893 53.4602883 69 58 C64.05 58 59.1 58 54 58 C53.970271 56.30472168 53.970271 56.30472168 53.93994141 54.57519531 C53.8638112 50.37803036 53.77510521 46.18120874 53.68261719 41.984375 C53.64435809 40.16868879 53.60949983 38.35292759 53.578125 36.53710938 C53.5324077 33.92550877 53.47442464 31.31442312 53.4140625 28.703125 C53.40251129 27.89256653 53.39096008 27.08200806 53.37905884 26.24688721 C53.28870894 20.79941244 53.28870894 20.79941244 51 16 C47.89008604 14.44504302 44.56655951 14.75923044 41.1484375 14.68359375 C40.37440582 14.66281265 39.60037415 14.64203156 38.80288696 14.62062073 C36.32701608 14.55516552 33.85103798 14.49625913 31.375 14.4375 C29.69790552 14.39431093 28.02082193 14.35069652 26.34375 14.30664062 C22.22927692 14.19948829 18.11469586 14.09820955 14 14 C14.07677979 15.20301758 14.15355957 16.40603516 14.23266602 17.64550781 C15.07795151 31.10225908 15.09871023 44.52056975 15 58 C10.05 58 5.1 58 0 58 C0 38.86 0 19.72 0 0 Z " fill="#00F1FF" transform="translate(664,571)"/>
<path d="M0 0 C5.218125 -0.0825 10.43625 -0.165 15.8125 -0.25 C18.24653198 -0.30462402 18.24653198 -0.30462402 20.72973633 -0.36035156 C30.11298094 -0.43177274 39.89428579 -0.27191084 47.125 6.625 C51.16784996 11.74594328 50.06796619 16.61117816 50 23 C45.38 23 40.76 23 36 23 C35.87625 21.865625 35.7525 20.73125 35.625 19.5625 C35.41875 18.386875 35.2125 17.21125 35 16 C29.3039975 13.15199875 22.35733504 14.37396088 16 14 C16 28.52 16 43.04 16 58 C11.05 58 6.1 58 1 58 C0.505 29.29 0.505 29.29 0 0 Z " fill="#00F1FF" transform="translate(820,571)"/>
<path d="M0 0 C4.95 0 9.9 0 15 0 C15 22.77 15 45.54 15 69 C10.05 69 5.1 69 0 69 C0 46.23 0 23.46 0 0 Z " fill="#00F1FF" transform="translate(325,560)"/>
<path d="M0 0 C4.95 0 9.9 0 15 0 C15 17.16 15 34.32 15 52 C10.05 52 5.1 52 0 52 C0 34.84 0 17.68 0 0 Z " fill="#00F1FF" transform="translate(352,577)"/>
<path d="M0 0 C4.95 0 9.9 0 15 0 C15 17.16 15 34.32 15 52 C10.05 52 5.1 52 0 52 C0 34.84 0 17.68 0 0 Z " fill="#00F1FF" transform="translate(298,577)"/>
<path d="M0 0 C4.95 0 9.9 0 15 0 C15 3.96 15 7.92 15 12 C10.05 12 5.1 12 0 12 C0 8.04 0 4.08 0 0 Z " fill="#00F1FF" transform="translate(352,560)"/>
<path d="M0 0 C4.95 0 9.9 0 15 0 C15 3.96 15 7.92 15 12 C10.05 12 5.1 12 0 12 C0 8.04 0 4.08 0 0 Z " fill="#00F1FF" transform="translate(298,560)"/>
</svg>